<mxfile host="Electron" agent="Mozilla/5.0 (Windows NT 10.0; Win64; x64) AppleWebKit/537.36 (KHTML, like Gecko) draw.io/25.0.2 Chrome/128.0.6613.186 Electron/32.2.5 Safari/537.36" version="25.0.2">
  <diagram name="Page-1" id="A6kIvv7id74kdAEmvv3L">
    <mxGraphModel dx="2550" dy="2235" grid="0" gridSize="10" guides="1" tooltips="1" connect="1" arrows="1" fold="1" page="0" pageScale="1" pageWidth="850" pageHeight="1100" math="0" shadow="0">
      <root>
        <mxCell id="0" />
        <mxCell id="1" parent="0" />
        <mxCell id="AUr0qY8jAKxIQQjFlksC-3" value="" style="edgeStyle=none;curved=1;rounded=0;orthogonalLoop=1;jettySize=auto;html=1;fontSize=12;startSize=8;endSize=8;entryX=0.5;entryY=1;entryDx=0;entryDy=0;" parent="1" target="AUr0qY8jAKxIQQjFlksC-2" edge="1">
          <mxGeometry relative="1" as="geometry">
            <mxPoint x="-110" y="-151" as="sourcePoint" />
            <mxPoint x="-62.38500357232297" y="-291.33142729805877" as="targetPoint" />
          </mxGeometry>
        </mxCell>
        <mxCell id="AUr0qY8jAKxIQQjFlksC-1" value="Employee" style="rounded=0;whiteSpace=wrap;html=1;" parent="1" vertex="1">
          <mxGeometry x="-174" y="-151" width="253" height="60" as="geometry" />
        </mxCell>
        <mxCell id="AUr0qY8jAKxIQQjFlksC-2" value="Employee ID (PK)" style="ellipse;whiteSpace=wrap;html=1;" parent="1" vertex="1">
          <mxGeometry x="-186" y="-520" width="60" height="83" as="geometry" />
        </mxCell>
        <mxCell id="AUr0qY8jAKxIQQjFlksC-41" value="" style="edgeStyle=none;curved=1;rounded=0;orthogonalLoop=1;jettySize=auto;html=1;fontSize=12;startSize=8;endSize=8;entryX=0.5;entryY=1;entryDx=0;entryDy=0;" parent="1" source="AUr0qY8jAKxIQQjFlksC-4" edge="1" target="AUr0qY8jAKxIQQjFlksC-42">
          <mxGeometry relative="1" as="geometry">
            <mxPoint x="463" y="-261" as="targetPoint" />
          </mxGeometry>
        </mxCell>
        <mxCell id="AUr0qY8jAKxIQQjFlksC-4" value="Department" style="rounded=0;whiteSpace=wrap;html=1;" parent="1" vertex="1">
          <mxGeometry x="620" y="-163" width="120" height="60" as="geometry" />
        </mxCell>
        <mxCell id="AUr0qY8jAKxIQQjFlksC-6" value="N" style="text;html=1;align=center;verticalAlign=middle;whiteSpace=wrap;rounded=0;fontSize=16;" parent="1" vertex="1">
          <mxGeometry x="153" y="-139" width="60" height="30" as="geometry" />
        </mxCell>
        <mxCell id="AUr0qY8jAKxIQQjFlksC-9" value="" style="endArrow=none;html=1;rounded=0;fontSize=12;startSize=8;endSize=8;curved=1;entryX=0;entryY=0.5;entryDx=0;entryDy=0;" parent="1" edge="1" target="AUr0qY8jAKxIQQjFlksC-14">
          <mxGeometry width="50" height="50" relative="1" as="geometry">
            <mxPoint x="202" y="-124" as="sourcePoint" />
            <mxPoint x="306" y="-119" as="targetPoint" />
          </mxGeometry>
        </mxCell>
        <mxCell id="AUr0qY8jAKxIQQjFlksC-11" value="" style="endArrow=none;html=1;rounded=0;fontSize=12;startSize=8;endSize=8;curved=1;entryX=0;entryY=0.75;entryDx=0;entryDy=0;" parent="1" edge="1">
          <mxGeometry width="50" height="50" relative="1" as="geometry">
            <mxPoint x="392" y="-124.41" as="sourcePoint" />
            <mxPoint x="475" y="-124.91" as="targetPoint" />
          </mxGeometry>
        </mxCell>
        <mxCell id="AUr0qY8jAKxIQQjFlksC-12" value="1" style="text;html=1;align=center;verticalAlign=middle;whiteSpace=wrap;rounded=0;fontSize=16;" parent="1" vertex="1">
          <mxGeometry x="474" y="-139" width="60" height="30" as="geometry" />
        </mxCell>
        <mxCell id="AUr0qY8jAKxIQQjFlksC-14" value="Works In" style="rhombus;whiteSpace=wrap;html=1;" parent="1" vertex="1">
          <mxGeometry x="308" y="-164" width="80" height="80" as="geometry" />
        </mxCell>
        <mxCell id="AUr0qY8jAKxIQQjFlksC-15" value="" style="endArrow=classic;html=1;rounded=0;fontSize=12;startSize=8;endSize=8;curved=1;entryX=0.5;entryY=1;entryDx=0;entryDy=0;" parent="1" target="AUr0qY8jAKxIQQjFlksC-17" edge="1">
          <mxGeometry width="50" height="50" relative="1" as="geometry">
            <mxPoint x="-65" y="-150" as="sourcePoint" />
            <mxPoint x="-61" y="-202" as="targetPoint" />
          </mxGeometry>
        </mxCell>
        <mxCell id="AUr0qY8jAKxIQQjFlksC-17" value="&amp;nbsp;Name" style="ellipse;whiteSpace=wrap;html=1;" parent="1" vertex="1">
          <mxGeometry x="-70" y="-399" width="41" height="66" as="geometry" />
        </mxCell>
        <mxCell id="AUr0qY8jAKxIQQjFlksC-20" value="" style="endArrow=classic;html=1;rounded=0;fontSize=12;startSize=8;endSize=8;curved=1;entryX=0.5;entryY=1;entryDx=0;entryDy=0;exitX=0.5;exitY=0;exitDx=0;exitDy=0;" parent="1" edge="1" target="AUr0qY8jAKxIQQjFlksC-23" source="AUr0qY8jAKxIQQjFlksC-17">
          <mxGeometry width="50" height="50" relative="1" as="geometry">
            <mxPoint x="16" y="-389" as="sourcePoint" />
            <mxPoint x="22" y="-404" as="targetPoint" />
          </mxGeometry>
        </mxCell>
        <mxCell id="AUr0qY8jAKxIQQjFlksC-21" value="" style="endArrow=classic;html=1;rounded=0;fontSize=12;startSize=8;endSize=8;curved=1;exitX=1;exitY=0;exitDx=0;exitDy=0;entryX=0.5;entryY=1;entryDx=0;entryDy=0;" parent="1" edge="1" target="AUr0qY8jAKxIQQjFlksC-24" source="AUr0qY8jAKxIQQjFlksC-17">
          <mxGeometry width="50" height="50" relative="1" as="geometry">
            <mxPoint x="57" y="-371" as="sourcePoint" />
            <mxPoint x="87" y="-402" as="targetPoint" />
          </mxGeometry>
        </mxCell>
        <mxCell id="AUr0qY8jAKxIQQjFlksC-23" value="First Name" style="ellipse;whiteSpace=wrap;html=1;" parent="1" vertex="1">
          <mxGeometry x="-83" y="-554" width="59" height="80" as="geometry" />
        </mxCell>
        <mxCell id="AUr0qY8jAKxIQQjFlksC-24" value="Last Name" style="ellipse;whiteSpace=wrap;html=1;" parent="1" vertex="1">
          <mxGeometry x="-14" y="-556" width="55" height="80" as="geometry" />
        </mxCell>
        <mxCell id="AUr0qY8jAKxIQQjFlksC-26" value="" style="endArrow=classic;html=1;rounded=0;fontSize=12;startSize=8;endSize=8;curved=1;entryX=0.5;entryY=1;entryDx=0;entryDy=0;exitX=0.419;exitY=0.041;exitDx=0;exitDy=0;exitPerimeter=0;" parent="1" edge="1" target="AUr0qY8jAKxIQQjFlksC-27" source="AUr0qY8jAKxIQQjFlksC-1">
          <mxGeometry width="50" height="50" relative="1" as="geometry">
            <mxPoint x="-69" y="-157" as="sourcePoint" />
            <mxPoint x="-162" y="-223" as="targetPoint" />
          </mxGeometry>
        </mxCell>
        <mxCell id="AUr0qY8jAKxIQQjFlksC-27" value="Date Of Birth" style="ellipse;whiteSpace=wrap;html=1;" parent="1" vertex="1">
          <mxGeometry x="51" y="-469" width="54" height="80" as="geometry" />
        </mxCell>
        <mxCell id="AUr0qY8jAKxIQQjFlksC-32" value="" style="endArrow=classic;html=1;rounded=0;fontSize=12;startSize=8;endSize=8;curved=1;exitX=1;exitY=0;exitDx=0;exitDy=0;entryX=0.5;entryY=1;entryDx=0;entryDy=0;" parent="1" source="3X7sFjILc2nTBFVgpaD6-52" target="AUr0qY8jAKxIQQjFlksC-33" edge="1">
          <mxGeometry width="50" height="50" relative="1" as="geometry">
            <mxPoint x="-73" y="-152" as="sourcePoint" />
            <mxPoint x="679" y="-713" as="targetPoint" />
          </mxGeometry>
        </mxCell>
        <mxCell id="AUr0qY8jAKxIQQjFlksC-33" value="Phone Number" style="ellipse;whiteSpace=wrap;html=1;" parent="1" vertex="1">
          <mxGeometry x="656.5" y="-794" width="47" height="80" as="geometry" />
        </mxCell>
        <mxCell id="AUr0qY8jAKxIQQjFlksC-34" value="" style="endArrow=classic;html=1;rounded=0;fontSize=12;startSize=8;endSize=8;curved=1;entryX=0;entryY=1;entryDx=0;entryDy=0;exitX=0.424;exitY=0.103;exitDx=0;exitDy=0;exitPerimeter=0;" parent="1" source="AUr0qY8jAKxIQQjFlksC-1" target="AUr0qY8jAKxIQQjFlksC-35" edge="1">
          <mxGeometry width="50" height="50" relative="1" as="geometry">
            <mxPoint x="-74" y="-156" as="sourcePoint" />
            <mxPoint x="116" y="-215" as="targetPoint" />
          </mxGeometry>
        </mxCell>
        <mxCell id="AUr0qY8jAKxIQQjFlksC-35" value="Gender" style="ellipse;whiteSpace=wrap;html=1;" parent="1" vertex="1">
          <mxGeometry x="47" y="-560" width="58" height="80" as="geometry" />
        </mxCell>
        <mxCell id="AUr0qY8jAKxIQQjFlksC-42" value="Department ID (PK)" style="ellipse;whiteSpace=wrap;html=1;" parent="1" vertex="1">
          <mxGeometry x="639" y="-376" width="73" height="80" as="geometry" />
        </mxCell>
        <mxCell id="AUr0qY8jAKxIQQjFlksC-43" value="" style="endArrow=classic;html=1;rounded=0;fontSize=12;startSize=8;endSize=8;curved=1;exitX=0.5;exitY=0;exitDx=0;exitDy=0;entryX=1;entryY=1;entryDx=0;entryDy=0;" parent="1" source="AUr0qY8jAKxIQQjFlksC-4" edge="1" target="AUr0qY8jAKxIQQjFlksC-44">
          <mxGeometry width="50" height="50" relative="1" as="geometry">
            <mxPoint x="380" y="-175" as="sourcePoint" />
            <mxPoint x="400" y="-220" as="targetPoint" />
          </mxGeometry>
        </mxCell>
        <mxCell id="AUr0qY8jAKxIQQjFlksC-44" value="Department Name" style="ellipse;whiteSpace=wrap;html=1;" parent="1" vertex="1">
          <mxGeometry x="554" y="-376" width="68.5" height="80" as="geometry" />
        </mxCell>
        <mxCell id="AUr0qY8jAKxIQQjFlksC-45" value="" style="endArrow=classic;html=1;rounded=0;fontSize=12;startSize=8;endSize=8;curved=1;exitX=0.5;exitY=0;exitDx=0;exitDy=0;entryX=0.5;entryY=1;entryDx=0;entryDy=0;" parent="1" edge="1" target="AUr0qY8jAKxIQQjFlksC-46" source="AUr0qY8jAKxIQQjFlksC-4">
          <mxGeometry width="50" height="50" relative="1" as="geometry">
            <mxPoint x="464" y="-151" as="sourcePoint" />
            <mxPoint x="762" y="-210" as="targetPoint" />
          </mxGeometry>
        </mxCell>
        <mxCell id="AUr0qY8jAKxIQQjFlksC-46" value="Manager ID(FK)" style="ellipse;whiteSpace=wrap;html=1;" parent="1" vertex="1">
          <mxGeometry x="728" y="-372" width="66" height="80" as="geometry" />
        </mxCell>
        <mxCell id="AUr0qY8jAKxIQQjFlksC-47" value="" style="endArrow=none;html=1;rounded=0;fontSize=12;startSize=8;endSize=8;curved=1;" parent="1" edge="1">
          <mxGeometry width="50" height="50" relative="1" as="geometry">
            <mxPoint x="-224" y="-41" as="sourcePoint" />
            <mxPoint x="-174" y="-91" as="targetPoint" />
          </mxGeometry>
        </mxCell>
        <mxCell id="AUr0qY8jAKxIQQjFlksC-48" value="N" style="text;html=1;align=center;verticalAlign=middle;whiteSpace=wrap;rounded=0;fontSize=16;" parent="1" vertex="1">
          <mxGeometry x="-261" y="-45" width="60" height="30" as="geometry" />
        </mxCell>
        <mxCell id="AUr0qY8jAKxIQQjFlksC-49" value="" style="endArrow=none;html=1;rounded=0;fontSize=12;startSize=8;endSize=8;curved=1;" parent="1" edge="1">
          <mxGeometry width="50" height="50" relative="1" as="geometry">
            <mxPoint x="-281" y="15" as="sourcePoint" />
            <mxPoint x="-246" y="-19" as="targetPoint" />
          </mxGeometry>
        </mxCell>
        <mxCell id="AUr0qY8jAKxIQQjFlksC-50" value="Managerial Hierarchy" style="rounded=0;whiteSpace=wrap;html=1;" parent="1" vertex="1">
          <mxGeometry x="-455" y="125" width="120" height="60" as="geometry" />
        </mxCell>
        <mxCell id="AUr0qY8jAKxIQQjFlksC-53" value="ManagerID&amp;nbsp;&lt;div&gt;(PK)&lt;/div&gt;" style="ellipse;whiteSpace=wrap;html=1;" parent="1" vertex="1">
          <mxGeometry x="-578" y="126" width="70" height="80" as="geometry" />
        </mxCell>
        <mxCell id="AUr0qY8jAKxIQQjFlksC-54" value="" style="endArrow=classic;html=1;rounded=0;fontSize=12;startSize=8;endSize=8;curved=1;exitX=0;exitY=0.5;exitDx=0;exitDy=0;entryX=0.959;entryY=0.588;entryDx=0;entryDy=0;entryPerimeter=0;" parent="1" source="AUr0qY8jAKxIQQjFlksC-50" target="AUr0qY8jAKxIQQjFlksC-53" edge="1">
          <mxGeometry width="50" height="50" relative="1" as="geometry">
            <mxPoint x="-500" y="193" as="sourcePoint" />
            <mxPoint x="-450" y="143" as="targetPoint" />
          </mxGeometry>
        </mxCell>
        <mxCell id="AUr0qY8jAKxIQQjFlksC-55" value="Speaks" style="rhombus;whiteSpace=wrap;html=1;" parent="1" vertex="1">
          <mxGeometry x="-341" y="3" width="70" height="58" as="geometry" />
        </mxCell>
        <mxCell id="AUr0qY8jAKxIQQjFlksC-56" value="" style="endArrow=none;html=1;rounded=0;fontSize=12;startSize=8;endSize=8;curved=1;" parent="1" edge="1">
          <mxGeometry width="50" height="50" relative="1" as="geometry">
            <mxPoint x="-347" y="78" as="sourcePoint" />
            <mxPoint x="-324" y="51" as="targetPoint" />
          </mxGeometry>
        </mxCell>
        <mxCell id="AUr0qY8jAKxIQQjFlksC-57" value="" style="endArrow=classic;html=1;rounded=0;fontSize=12;startSize=8;endSize=8;curved=1;exitX=0;exitY=0.5;exitDx=0;exitDy=0;" parent="1" source="AUr0qY8jAKxIQQjFlksC-50" edge="1">
          <mxGeometry width="50" height="50" relative="1" as="geometry">
            <mxPoint x="-493" y="117" as="sourcePoint" />
            <mxPoint x="-483" y="89" as="targetPoint" />
          </mxGeometry>
        </mxCell>
        <mxCell id="AUr0qY8jAKxIQQjFlksC-58" value="HierarchyID&lt;div&gt;(PK)&lt;/div&gt;" style="ellipse;whiteSpace=wrap;html=1;" parent="1" vertex="1">
          <mxGeometry x="-549" y="34" width="72" height="80" as="geometry" />
        </mxCell>
        <mxCell id="AUr0qY8jAKxIQQjFlksC-59" value="" style="endArrow=none;html=1;rounded=0;fontSize=12;startSize=8;endSize=8;curved=1;exitX=0.5;exitY=0;exitDx=0;exitDy=0;entryX=0.448;entryY=0.985;entryDx=0;entryDy=0;entryPerimeter=0;" parent="1" edge="1" target="AUr0qY8jAKxIQQjFlksC-1" source="AUr0qY8jAKxIQQjFlksC-60">
          <mxGeometry width="50" height="50" relative="1" as="geometry">
            <mxPoint x="-114.5" y="-11" as="sourcePoint" />
            <mxPoint x="-62" y="-94" as="targetPoint" />
          </mxGeometry>
        </mxCell>
        <mxCell id="AUr0qY8jAKxIQQjFlksC-60" value="N" style="text;html=1;align=center;verticalAlign=middle;whiteSpace=wrap;rounded=0;fontSize=16;" parent="1" vertex="1">
          <mxGeometry x="-89" y="-11" width="60" height="30" as="geometry" />
        </mxCell>
        <mxCell id="AUr0qY8jAKxIQQjFlksC-61" value="" style="endArrow=none;html=1;rounded=0;fontSize=12;startSize=8;endSize=8;curved=1;exitX=0.5;exitY=0;exitDx=0;exitDy=0;" parent="1" edge="1" source="AUr0qY8jAKxIQQjFlksC-62">
          <mxGeometry width="50" height="50" relative="1" as="geometry">
            <mxPoint x="-63" y="84" as="sourcePoint" />
            <mxPoint x="-59" y="24" as="targetPoint" />
          </mxGeometry>
        </mxCell>
        <mxCell id="AUr0qY8jAKxIQQjFlksC-62" value="&lt;font style=&quot;font-size: 13px;&quot;&gt;Has Status&lt;/font&gt;" style="rhombus;whiteSpace=wrap;html=1;" parent="1" vertex="1">
          <mxGeometry x="-99" y="88" width="80" height="46" as="geometry" />
        </mxCell>
        <mxCell id="AUr0qY8jAKxIQQjFlksC-63" value="" style="endArrow=none;html=1;rounded=0;fontSize=12;startSize=8;endSize=8;curved=1;exitX=0.5;exitY=0;exitDx=0;exitDy=0;entryX=0.5;entryY=1;entryDx=0;entryDy=0;" parent="1" edge="1" target="AUr0qY8jAKxIQQjFlksC-62" source="AUr0qY8jAKxIQQjFlksC-64">
          <mxGeometry width="50" height="50" relative="1" as="geometry">
            <mxPoint x="-114.5" y="181" as="sourcePoint" />
            <mxPoint x="-114.5" y="140" as="targetPoint" />
          </mxGeometry>
        </mxCell>
        <mxCell id="AUr0qY8jAKxIQQjFlksC-64" value="&lt;font style=&quot;font-size: 17px;&quot;&gt;1&lt;/font&gt;" style="text;html=1;align=center;verticalAlign=middle;whiteSpace=wrap;rounded=0;fontSize=16;" parent="1" vertex="1">
          <mxGeometry x="-89" y="193" width="60" height="30" as="geometry" />
        </mxCell>
        <mxCell id="AUr0qY8jAKxIQQjFlksC-70" value="" style="edgeStyle=none;curved=1;rounded=0;orthogonalLoop=1;jettySize=auto;html=1;fontSize=12;startSize=8;endSize=8;" parent="1" source="AUr0qY8jAKxIQQjFlksC-65" edge="1">
          <mxGeometry relative="1" as="geometry">
            <mxPoint x="-201" y="285" as="targetPoint" />
          </mxGeometry>
        </mxCell>
        <mxCell id="AUr0qY8jAKxIQQjFlksC-73" value="" style="edgeStyle=none;curved=1;rounded=0;orthogonalLoop=1;jettySize=auto;html=1;fontSize=12;startSize=8;endSize=8;entryX=0.715;entryY=0.013;entryDx=0;entryDy=0;entryPerimeter=0;" parent="1" source="AUr0qY8jAKxIQQjFlksC-65" edge="1" target="AUr0qY8jAKxIQQjFlksC-74">
          <mxGeometry relative="1" as="geometry">
            <mxPoint x="-113" y="382" as="targetPoint" />
          </mxGeometry>
        </mxCell>
        <mxCell id="AUr0qY8jAKxIQQjFlksC-65" value="Employment Status" style="rounded=0;whiteSpace=wrap;html=1;" parent="1" vertex="1">
          <mxGeometry x="-119" y="247" width="120" height="60" as="geometry" />
        </mxCell>
        <mxCell id="AUr0qY8jAKxIQQjFlksC-67" value="" style="endArrow=none;html=1;rounded=0;fontSize=12;startSize=8;endSize=8;curved=1;exitX=0.5;exitY=0;exitDx=0;exitDy=0;" parent="1" source="AUr0qY8jAKxIQQjFlksC-65" edge="1">
          <mxGeometry width="50" height="50" relative="1" as="geometry">
            <mxPoint x="-109.7" y="252.01" as="sourcePoint" />
            <mxPoint x="-59" y="217" as="targetPoint" />
          </mxGeometry>
        </mxCell>
        <mxCell id="AUr0qY8jAKxIQQjFlksC-71" value="Employment ID (PK)" style="ellipse;whiteSpace=wrap;html=1;" parent="1" vertex="1">
          <mxGeometry x="-270" y="249.5" width="69" height="80" as="geometry" />
        </mxCell>
        <mxCell id="AUr0qY8jAKxIQQjFlksC-74" value="Status" style="ellipse;whiteSpace=wrap;html=1;" parent="1" vertex="1">
          <mxGeometry x="-228" y="367" width="73" height="80" as="geometry" />
        </mxCell>
        <mxCell id="AUr0qY8jAKxIQQjFlksC-75" value="" style="endArrow=none;html=1;rounded=0;fontSize=12;startSize=8;endSize=8;curved=1;" parent="1" edge="1">
          <mxGeometry width="50" height="50" relative="1" as="geometry">
            <mxPoint x="135" y="-43" as="sourcePoint" />
            <mxPoint x="79" y="-91" as="targetPoint" />
          </mxGeometry>
        </mxCell>
        <mxCell id="AUr0qY8jAKxIQQjFlksC-76" value="N" style="text;html=1;align=center;verticalAlign=middle;whiteSpace=wrap;rounded=0;fontSize=16;" parent="1" vertex="1">
          <mxGeometry x="118" y="-45" width="60" height="30" as="geometry" />
        </mxCell>
        <mxCell id="AUr0qY8jAKxIQQjFlksC-77" value="" style="endArrow=none;html=1;rounded=0;fontSize=12;startSize=8;endSize=8;curved=1;" parent="1" edge="1">
          <mxGeometry width="50" height="50" relative="1" as="geometry">
            <mxPoint x="223" y="30" as="sourcePoint" />
            <mxPoint x="158" y="-23" as="targetPoint" />
          </mxGeometry>
        </mxCell>
        <mxCell id="AUr0qY8jAKxIQQjFlksC-78" value="Has Salary" style="rhombus;whiteSpace=wrap;html=1;" parent="1" vertex="1">
          <mxGeometry x="204" y="23" width="78" height="57" as="geometry" />
        </mxCell>
        <mxCell id="AUr0qY8jAKxIQQjFlksC-79" value="" style="endArrow=none;html=1;rounded=0;fontSize=12;startSize=8;endSize=8;curved=1;exitX=0.25;exitY=0;exitDx=0;exitDy=0;" parent="1" edge="1" source="AUr0qY8jAKxIQQjFlksC-80">
          <mxGeometry width="50" height="50" relative="1" as="geometry">
            <mxPoint x="353" y="140" as="sourcePoint" />
            <mxPoint x="279" y="78" as="targetPoint" />
          </mxGeometry>
        </mxCell>
        <mxCell id="AUr0qY8jAKxIQQjFlksC-80" value="1" style="text;html=1;align=center;verticalAlign=middle;whiteSpace=wrap;rounded=0;fontSize=16;" parent="1" vertex="1">
          <mxGeometry x="335" y="140" width="60" height="30" as="geometry" />
        </mxCell>
        <mxCell id="AUr0qY8jAKxIQQjFlksC-84" value="" style="edgeStyle=none;curved=1;rounded=0;orthogonalLoop=1;jettySize=auto;html=1;fontSize=12;startSize=8;endSize=8;exitX=0.75;exitY=1;exitDx=0;exitDy=0;entryX=0.651;entryY=-0.005;entryDx=0;entryDy=0;entryPerimeter=0;" parent="1" source="AUr0qY8jAKxIQQjFlksC-81" edge="1" target="AUr0qY8jAKxIQQjFlksC-85">
          <mxGeometry relative="1" as="geometry">
            <mxPoint x="462.5" y="410" as="sourcePoint" />
            <mxPoint x="480" y="417" as="targetPoint" />
          </mxGeometry>
        </mxCell>
        <mxCell id="AUr0qY8jAKxIQQjFlksC-87" value="" style="edgeStyle=none;curved=1;rounded=0;orthogonalLoop=1;jettySize=auto;html=1;fontSize=12;startSize=8;endSize=8;entryX=0.328;entryY=0.955;entryDx=0;entryDy=0;entryPerimeter=0;" parent="1" edge="1" target="AUr0qY8jAKxIQQjFlksC-88">
          <mxGeometry relative="1" as="geometry">
            <mxPoint x="644" y="237" as="targetPoint" />
            <mxPoint x="577" y="245.44094488188966" as="sourcePoint" />
          </mxGeometry>
        </mxCell>
        <mxCell id="AUr0qY8jAKxIQQjFlksC-92" value="" style="edgeStyle=none;curved=1;rounded=0;orthogonalLoop=1;jettySize=auto;html=1;fontSize=12;startSize=8;endSize=8;entryX=0.691;entryY=0.083;entryDx=0;entryDy=0;entryPerimeter=0;" parent="1" source="AUr0qY8jAKxIQQjFlksC-81" edge="1" target="AUr0qY8jAKxIQQjFlksC-93">
          <mxGeometry relative="1" as="geometry">
            <mxPoint x="363" y="404" as="targetPoint" />
          </mxGeometry>
        </mxCell>
        <mxCell id="AUr0qY8jAKxIQQjFlksC-81" value="Salary" style="rounded=0;whiteSpace=wrap;html=1;" parent="1" vertex="1">
          <mxGeometry x="474" y="247" width="120" height="60" as="geometry" />
        </mxCell>
        <mxCell id="AUr0qY8jAKxIQQjFlksC-85" value="Salary ID (PK)" style="ellipse;whiteSpace=wrap;html=1;" parent="1" vertex="1">
          <mxGeometry x="516" y="434" width="71" height="80" as="geometry" />
        </mxCell>
        <mxCell id="AUr0qY8jAKxIQQjFlksC-88" value="Employee ID (FK)" style="ellipse;whiteSpace=wrap;html=1;" parent="1" vertex="1">
          <mxGeometry x="594" y="100" width="72" height="80" as="geometry" />
        </mxCell>
        <mxCell id="AUr0qY8jAKxIQQjFlksC-89" value="" style="endArrow=classic;html=1;rounded=0;fontSize=12;startSize=8;endSize=8;curved=1;entryX=0.5;entryY=0;entryDx=0;entryDy=0;exitX=1;exitY=1;exitDx=0;exitDy=0;" parent="1" source="AUr0qY8jAKxIQQjFlksC-81" edge="1" target="AUr0qY8jAKxIQQjFlksC-90">
          <mxGeometry width="50" height="50" relative="1" as="geometry">
            <mxPoint x="579" y="318" as="sourcePoint" />
            <mxPoint x="660.0000000000064" y="337" as="targetPoint" />
          </mxGeometry>
        </mxCell>
        <mxCell id="AUr0qY8jAKxIQQjFlksC-90" value="Salary Amount" style="ellipse;whiteSpace=wrap;html=1;" parent="1" vertex="1">
          <mxGeometry x="613" y="393" width="68" height="80" as="geometry" />
        </mxCell>
        <mxCell id="AUr0qY8jAKxIQQjFlksC-93" value="Salary Type" style="ellipse;whiteSpace=wrap;html=1;" parent="1" vertex="1">
          <mxGeometry x="433" y="427" width="73" height="80" as="geometry" />
        </mxCell>
        <mxCell id="AUr0qY8jAKxIQQjFlksC-94" value="" style="endArrow=classic;html=1;rounded=0;fontSize=12;startSize=8;endSize=8;curved=1;exitX=0;exitY=1;exitDx=0;exitDy=0;" parent="1" edge="1" source="AUr0qY8jAKxIQQjFlksC-81">
          <mxGeometry width="50" height="50" relative="1" as="geometry">
            <mxPoint x="358" y="312" as="sourcePoint" />
            <mxPoint x="401" y="407" as="targetPoint" />
          </mxGeometry>
        </mxCell>
        <mxCell id="AUr0qY8jAKxIQQjFlksC-95" value="Effective Date" style="ellipse;whiteSpace=wrap;html=1;" parent="1" vertex="1">
          <mxGeometry x="363" y="409" width="66" height="80" as="geometry" />
        </mxCell>
        <mxCell id="AUr0qY8jAKxIQQjFlksC-98" value="" style="endArrow=none;html=1;rounded=0;fontSize=12;startSize=8;endSize=8;curved=1;" parent="1" edge="1">
          <mxGeometry width="50" height="50" relative="1" as="geometry">
            <mxPoint x="-104" y="-151" as="sourcePoint" />
            <mxPoint x="-104" y="-519" as="targetPoint" />
          </mxGeometry>
        </mxCell>
        <mxCell id="AUr0qY8jAKxIQQjFlksC-99" value="N" style="text;html=1;align=center;verticalAlign=middle;whiteSpace=wrap;rounded=0;fontSize=16;" parent="1" vertex="1">
          <mxGeometry x="-134" y="-550" width="60" height="30" as="geometry" />
        </mxCell>
        <mxCell id="AUr0qY8jAKxIQQjFlksC-100" value="" style="endArrow=none;html=1;rounded=0;fontSize=12;startSize=8;endSize=8;curved=1;" parent="1" edge="1">
          <mxGeometry width="50" height="50" relative="1" as="geometry">
            <mxPoint x="-105" y="-551" as="sourcePoint" />
            <mxPoint x="-105" y="-632" as="targetPoint" />
          </mxGeometry>
        </mxCell>
        <mxCell id="AUr0qY8jAKxIQQjFlksC-101" value="Has Job" style="rhombus;whiteSpace=wrap;html=1;" parent="1" vertex="1">
          <mxGeometry x="-144" y="-716" width="80" height="80" as="geometry" />
        </mxCell>
        <mxCell id="AUr0qY8jAKxIQQjFlksC-102" value="" style="endArrow=none;html=1;rounded=0;fontSize=12;startSize=8;endSize=8;curved=1;" parent="1" edge="1">
          <mxGeometry width="50" height="50" relative="1" as="geometry">
            <mxPoint x="-105" y="-723" as="sourcePoint" />
            <mxPoint x="-105" y="-775" as="targetPoint" />
          </mxGeometry>
        </mxCell>
        <mxCell id="AUr0qY8jAKxIQQjFlksC-103" value="1" style="text;html=1;align=center;verticalAlign=middle;whiteSpace=wrap;rounded=0;fontSize=16;" parent="1" vertex="1">
          <mxGeometry x="-134" y="-806" width="60" height="30" as="geometry" />
        </mxCell>
        <mxCell id="AUr0qY8jAKxIQQjFlksC-104" value="" style="endArrow=none;html=1;rounded=0;fontSize=12;startSize=8;endSize=8;curved=1;" parent="1" edge="1">
          <mxGeometry width="50" height="50" relative="1" as="geometry">
            <mxPoint x="-105" y="-805" as="sourcePoint" />
            <mxPoint x="-105" y="-844" as="targetPoint" />
          </mxGeometry>
        </mxCell>
        <mxCell id="AUr0qY8jAKxIQQjFlksC-107" value="" style="edgeStyle=none;curved=1;rounded=0;orthogonalLoop=1;jettySize=auto;html=1;fontSize=12;startSize=8;endSize=8;" parent="1" source="AUr0qY8jAKxIQQjFlksC-105" edge="1">
          <mxGeometry relative="1" as="geometry">
            <mxPoint x="-104" y="-971" as="targetPoint" />
          </mxGeometry>
        </mxCell>
        <mxCell id="AUr0qY8jAKxIQQjFlksC-112" value="" style="edgeStyle=none;curved=1;rounded=0;orthogonalLoop=1;jettySize=auto;html=1;fontSize=12;startSize=8;endSize=8;" parent="1" source="AUr0qY8jAKxIQQjFlksC-105" edge="1">
          <mxGeometry relative="1" as="geometry">
            <mxPoint x="-304" y="-874" as="targetPoint" />
          </mxGeometry>
        </mxCell>
        <mxCell id="AUr0qY8jAKxIQQjFlksC-115" value="" style="edgeStyle=none;curved=1;rounded=0;orthogonalLoop=1;jettySize=auto;html=1;fontSize=12;startSize=8;endSize=8;" parent="1" source="AUr0qY8jAKxIQQjFlksC-105" edge="1">
          <mxGeometry relative="1" as="geometry">
            <mxPoint x="96" y="-874" as="targetPoint" />
          </mxGeometry>
        </mxCell>
        <mxCell id="AUr0qY8jAKxIQQjFlksC-105" value="Jobs" style="rounded=0;whiteSpace=wrap;html=1;" parent="1" vertex="1">
          <mxGeometry x="-164" y="-904" width="120" height="60" as="geometry" />
        </mxCell>
        <mxCell id="AUr0qY8jAKxIQQjFlksC-108" value="Job_Title ID (PK)" style="ellipse;whiteSpace=wrap;html=1;" parent="1" vertex="1">
          <mxGeometry x="-144" y="-1049" width="80" height="80" as="geometry" />
        </mxCell>
        <mxCell id="AUr0qY8jAKxIQQjFlksC-113" value="RequiredSkill" style="ellipse;whiteSpace=wrap;html=1;" parent="1" vertex="1">
          <mxGeometry x="-412" y="-914" width="111" height="80" as="geometry" />
        </mxCell>
        <mxCell id="AUr0qY8jAKxIQQjFlksC-116" value="Language" style="ellipse;whiteSpace=wrap;html=1;" parent="1" vertex="1">
          <mxGeometry x="99" y="-914" width="62" height="80" as="geometry" />
        </mxCell>
        <mxCell id="AUr0qY8jAKxIQQjFlksC-117" value="" style="endArrow=none;html=1;rounded=0;fontSize=12;startSize=8;endSize=8;curved=1;" parent="1" edge="1">
          <mxGeometry width="50" height="50" relative="1" as="geometry">
            <mxPoint x="418" y="-14" as="sourcePoint" />
            <mxPoint x="347.23" y="-84" as="targetPoint" />
          </mxGeometry>
        </mxCell>
        <mxCell id="AUr0qY8jAKxIQQjFlksC-118" value="N" style="text;html=1;align=center;verticalAlign=middle;whiteSpace=wrap;rounded=0;fontSize=16;" parent="1" vertex="1">
          <mxGeometry x="398" y="-5" width="60" height="30" as="geometry" />
        </mxCell>
        <mxCell id="AUr0qY8jAKxIQQjFlksC-119" value="" style="endArrow=none;html=1;rounded=0;fontSize=12;startSize=8;endSize=8;curved=1;" parent="1" edge="1">
          <mxGeometry width="50" height="50" relative="1" as="geometry">
            <mxPoint x="426" y="65" as="sourcePoint" />
            <mxPoint x="425.5" y="27" as="targetPoint" />
          </mxGeometry>
        </mxCell>
        <mxCell id="AUr0qY8jAKxIQQjFlksC-120" value="Includes" style="rhombus;whiteSpace=wrap;html=1;" parent="1" vertex="1">
          <mxGeometry x="388" y="66" width="80" height="42" as="geometry" />
        </mxCell>
        <mxCell id="AUr0qY8jAKxIQQjFlksC-121" value="" style="endArrow=none;html=1;rounded=0;fontSize=12;startSize=8;endSize=8;curved=1;" parent="1" edge="1">
          <mxGeometry width="50" height="50" relative="1" as="geometry">
            <mxPoint x="429" y="148" as="sourcePoint" />
            <mxPoint x="429" y="108" as="targetPoint" />
          </mxGeometry>
        </mxCell>
        <mxCell id="AUr0qY8jAKxIQQjFlksC-122" value="M" style="text;html=1;align=center;verticalAlign=middle;whiteSpace=wrap;rounded=0;fontSize=16;" parent="1" vertex="1">
          <mxGeometry x="400" y="146" width="60" height="30" as="geometry" />
        </mxCell>
        <mxCell id="AUr0qY8jAKxIQQjFlksC-123" value="" style="endArrow=none;html=1;rounded=0;fontSize=12;startSize=8;endSize=8;curved=1;" parent="1" edge="1">
          <mxGeometry width="50" height="50" relative="1" as="geometry">
            <mxPoint x="514" y="240" as="sourcePoint" />
            <mxPoint x="431" y="173" as="targetPoint" />
          </mxGeometry>
        </mxCell>
        <mxCell id="AUr0qY8jAKxIQQjFlksC-124" value="" style="endArrow=none;html=1;rounded=0;fontSize=12;startSize=8;endSize=8;curved=1;entryX=0;entryY=0.5;entryDx=0;entryDy=0;" parent="1" edge="1" target="AUr0qY8jAKxIQQjFlksC-81">
          <mxGeometry width="50" height="50" relative="1" as="geometry">
            <mxPoint x="351" y="277" as="sourcePoint" />
            <mxPoint x="357" y="279" as="targetPoint" />
          </mxGeometry>
        </mxCell>
        <mxCell id="AUr0qY8jAKxIQQjFlksC-125" value="N" style="text;html=1;align=center;verticalAlign=middle;whiteSpace=wrap;rounded=0;fontSize=16;" parent="1" vertex="1">
          <mxGeometry x="303" y="262" width="60" height="30" as="geometry" />
        </mxCell>
        <mxCell id="AUr0qY8jAKxIQQjFlksC-126" value="" style="endArrow=none;html=1;rounded=0;fontSize=12;startSize=8;endSize=8;curved=1;" parent="1" edge="1">
          <mxGeometry width="50" height="50" relative="1" as="geometry">
            <mxPoint x="252" y="276" as="sourcePoint" />
            <mxPoint x="321" y="276.2147826086955" as="targetPoint" />
          </mxGeometry>
        </mxCell>
        <mxCell id="AUr0qY8jAKxIQQjFlksC-127" value="Available As" style="rhombus;whiteSpace=wrap;html=1;" parent="1" vertex="1">
          <mxGeometry x="161" y="249.5" width="78" height="55" as="geometry" />
        </mxCell>
        <mxCell id="AUr0qY8jAKxIQQjFlksC-128" value="" style="endArrow=none;html=1;rounded=0;fontSize=12;startSize=8;endSize=8;curved=1;" parent="1" edge="1">
          <mxGeometry width="50" height="50" relative="1" as="geometry">
            <mxPoint x="96" y="279" as="sourcePoint" />
            <mxPoint x="159" y="279" as="targetPoint" />
          </mxGeometry>
        </mxCell>
        <mxCell id="AUr0qY8jAKxIQQjFlksC-129" value="M" style="text;html=1;align=center;verticalAlign=middle;whiteSpace=wrap;rounded=0;fontSize=16;" parent="1" vertex="1">
          <mxGeometry x="42" y="262" width="60" height="30" as="geometry" />
        </mxCell>
        <mxCell id="AUr0qY8jAKxIQQjFlksC-130" value="" style="endArrow=none;html=1;rounded=0;fontSize=12;startSize=8;endSize=8;curved=1;entryX=0.183;entryY=0.633;entryDx=0;entryDy=0;entryPerimeter=0;" parent="1" edge="1">
          <mxGeometry width="50" height="50" relative="1" as="geometry">
            <mxPoint x="8" y="279" as="sourcePoint" />
            <mxPoint x="60.97999999999956" y="279.2299999999998" as="targetPoint" />
          </mxGeometry>
        </mxCell>
        <mxCell id="3X7sFjILc2nTBFVgpaD6-2" value="" style="endArrow=classic;html=1;rounded=0;exitX=0;exitY=0.5;exitDx=0;exitDy=0;" edge="1" parent="1" source="AUr0qY8jAKxIQQjFlksC-1">
          <mxGeometry width="50" height="50" relative="1" as="geometry">
            <mxPoint x="-273" y="-107" as="sourcePoint" />
            <mxPoint x="-236" y="-121" as="targetPoint" />
          </mxGeometry>
        </mxCell>
        <mxCell id="3X7sFjILc2nTBFVgpaD6-4" value="N" style="text;html=1;align=center;verticalAlign=middle;whiteSpace=wrap;rounded=0;" vertex="1" parent="1">
          <mxGeometry x="-271" y="-136" width="60" height="30" as="geometry" />
        </mxCell>
        <mxCell id="3X7sFjILc2nTBFVgpaD6-6" value="" style="endArrow=none;html=1;rounded=0;" edge="1" parent="1">
          <mxGeometry width="50" height="50" relative="1" as="geometry">
            <mxPoint x="-317" y="-121.62" as="sourcePoint" />
            <mxPoint x="-252" y="-121.62" as="targetPoint" />
          </mxGeometry>
        </mxCell>
        <mxCell id="3X7sFjILc2nTBFVgpaD6-8" value="Lives at" style="rhombus;whiteSpace=wrap;html=1;" vertex="1" parent="1">
          <mxGeometry x="-404" y="-161" width="80" height="80" as="geometry" />
        </mxCell>
        <mxCell id="3X7sFjILc2nTBFVgpaD6-9" value="" style="endArrow=none;html=1;rounded=0;" edge="1" parent="1">
          <mxGeometry width="50" height="50" relative="1" as="geometry">
            <mxPoint x="-439" y="-122" as="sourcePoint" />
            <mxPoint x="-408" y="-121.63" as="targetPoint" />
          </mxGeometry>
        </mxCell>
        <mxCell id="3X7sFjILc2nTBFVgpaD6-10" value="Address" style="rounded=0;whiteSpace=wrap;html=1;" vertex="1" parent="1">
          <mxGeometry x="-616" y="-151" width="120" height="60" as="geometry" />
        </mxCell>
        <mxCell id="3X7sFjILc2nTBFVgpaD6-11" value="" style="endArrow=classic;html=1;rounded=0;exitX=0.5;exitY=1;exitDx=0;exitDy=0;" edge="1" parent="1" source="AUr0qY8jAKxIQQjFlksC-1" target="3X7sFjILc2nTBFVgpaD6-12">
          <mxGeometry width="50" height="50" relative="1" as="geometry">
            <mxPoint x="-350" y="-151" as="sourcePoint" />
            <mxPoint x="-350" y="-221" as="targetPoint" />
          </mxGeometry>
        </mxCell>
        <mxCell id="3X7sFjILc2nTBFVgpaD6-12" value="AddressID(FK)" style="ellipse;whiteSpace=wrap;html=1;" vertex="1" parent="1">
          <mxGeometry x="-13" y="8" width="83" height="80" as="geometry" />
        </mxCell>
        <mxCell id="3X7sFjILc2nTBFVgpaD6-13" value="" style="endArrow=classic;html=1;rounded=0;" edge="1" parent="1">
          <mxGeometry width="50" height="50" relative="1" as="geometry">
            <mxPoint x="-559" y="-152" as="sourcePoint" />
            <mxPoint x="-622" y="-228" as="targetPoint" />
          </mxGeometry>
        </mxCell>
        <mxCell id="3X7sFjILc2nTBFVgpaD6-14" value="Street" style="ellipse;whiteSpace=wrap;html=1;" vertex="1" parent="1">
          <mxGeometry x="-665" y="-304" width="60" height="80" as="geometry" />
        </mxCell>
        <mxCell id="3X7sFjILc2nTBFVgpaD6-15" value="" style="endArrow=classic;html=1;rounded=0;" edge="1" parent="1">
          <mxGeometry width="50" height="50" relative="1" as="geometry">
            <mxPoint x="-619" y="-120" as="sourcePoint" />
            <mxPoint x="-696" y="-120" as="targetPoint" />
          </mxGeometry>
        </mxCell>
        <mxCell id="3X7sFjILc2nTBFVgpaD6-17" value="City" style="ellipse;whiteSpace=wrap;html=1;" vertex="1" parent="1">
          <mxGeometry x="-749" y="-161" width="52" height="80" as="geometry" />
        </mxCell>
        <mxCell id="3X7sFjILc2nTBFVgpaD6-18" value="" style="endArrow=classic;html=1;rounded=0;exitX=0.5;exitY=1;exitDx=0;exitDy=0;" edge="1" parent="1" source="3X7sFjILc2nTBFVgpaD6-10">
          <mxGeometry width="50" height="50" relative="1" as="geometry">
            <mxPoint x="-603" y="-4" as="sourcePoint" />
            <mxPoint x="-601" y="-18" as="targetPoint" />
          </mxGeometry>
        </mxCell>
        <mxCell id="3X7sFjILc2nTBFVgpaD6-19" value="Eircode" style="ellipse;whiteSpace=wrap;html=1;" vertex="1" parent="1">
          <mxGeometry x="-660" y="-21" width="80" height="80" as="geometry" />
        </mxCell>
        <mxCell id="3X7sFjILc2nTBFVgpaD6-20" value="" style="endArrow=classic;html=1;rounded=0;entryX=1;entryY=0;entryDx=0;entryDy=0;" edge="1" parent="1" target="3X7sFjILc2nTBFVgpaD6-21">
          <mxGeometry width="50" height="50" relative="1" as="geometry">
            <mxPoint x="-557" y="-91" as="sourcePoint" />
            <mxPoint x="-652" y="-39" as="targetPoint" />
          </mxGeometry>
        </mxCell>
        <mxCell id="3X7sFjILc2nTBFVgpaD6-21" value="State" style="ellipse;whiteSpace=wrap;html=1;" vertex="1" parent="1">
          <mxGeometry x="-709" y="-64" width="52" height="80" as="geometry" />
        </mxCell>
        <mxCell id="3X7sFjILc2nTBFVgpaD6-23" value="1" style="text;html=1;align=center;verticalAlign=middle;whiteSpace=wrap;rounded=0;" vertex="1" parent="1">
          <mxGeometry x="-474" y="-136" width="60" height="30" as="geometry" />
        </mxCell>
        <mxCell id="3X7sFjILc2nTBFVgpaD6-26" value="" style="endArrow=none;html=1;rounded=0;entryX=0.367;entryY=0.533;entryDx=0;entryDy=0;entryPerimeter=0;exitX=1;exitY=0.5;exitDx=0;exitDy=0;" edge="1" parent="1" source="3X7sFjILc2nTBFVgpaD6-10" target="3X7sFjILc2nTBFVgpaD6-23">
          <mxGeometry width="50" height="50" relative="1" as="geometry">
            <mxPoint x="-496" y="-118" as="sourcePoint" />
            <mxPoint x="-446" y="-168" as="targetPoint" />
          </mxGeometry>
        </mxCell>
        <mxCell id="3X7sFjILc2nTBFVgpaD6-28" value="AddressID(PK)" style="ellipse;whiteSpace=wrap;html=1;" vertex="1" parent="1">
          <mxGeometry x="-603" y="-307.5" width="100" height="80" as="geometry" />
        </mxCell>
        <mxCell id="3X7sFjILc2nTBFVgpaD6-30" value="" style="endArrow=classic;html=1;rounded=0;entryX=0.5;entryY=1;entryDx=0;entryDy=0;" edge="1" parent="1" target="3X7sFjILc2nTBFVgpaD6-28">
          <mxGeometry width="50" height="50" relative="1" as="geometry">
            <mxPoint x="-557" y="-152" as="sourcePoint" />
            <mxPoint x="-507" y="-202" as="targetPoint" />
          </mxGeometry>
        </mxCell>
        <mxCell id="3X7sFjILc2nTBFVgpaD6-31" value="" style="endArrow=classic;html=1;rounded=0;" edge="1" parent="1">
          <mxGeometry width="50" height="50" relative="1" as="geometry">
            <mxPoint x="519" y="-124.91" as="sourcePoint" />
            <mxPoint x="620" y="-124.91" as="targetPoint" />
          </mxGeometry>
        </mxCell>
        <mxCell id="3X7sFjILc2nTBFVgpaD6-33" value="" style="endArrow=classic;html=1;rounded=0;exitX=1;exitY=0.5;exitDx=0;exitDy=0;" edge="1" parent="1" source="AUr0qY8jAKxIQQjFlksC-1" target="AUr0qY8jAKxIQQjFlksC-6">
          <mxGeometry width="50" height="50" relative="1" as="geometry">
            <mxPoint x="90" y="-73" as="sourcePoint" />
            <mxPoint x="140" y="-123" as="targetPoint" />
          </mxGeometry>
        </mxCell>
        <mxCell id="3X7sFjILc2nTBFVgpaD6-34" value="" style="endArrow=classic;html=1;rounded=0;exitX=0.75;exitY=1;exitDx=0;exitDy=0;entryX=0;entryY=0;entryDx=0;entryDy=0;" edge="1" parent="1" source="AUr0qY8jAKxIQQjFlksC-80" target="AUr0qY8jAKxIQQjFlksC-81">
          <mxGeometry width="50" height="50" relative="1" as="geometry">
            <mxPoint x="384" y="263" as="sourcePoint" />
            <mxPoint x="434" y="213" as="targetPoint" />
          </mxGeometry>
        </mxCell>
        <mxCell id="3X7sFjILc2nTBFVgpaD6-36" value="" style="endArrow=classic;html=1;rounded=0;exitX=0.75;exitY=1;exitDx=0;exitDy=0;entryX=0.5;entryY=0;entryDx=0;entryDy=0;" edge="1" parent="1" source="AUr0qY8jAKxIQQjFlksC-1" target="3X7sFjILc2nTBFVgpaD6-37">
          <mxGeometry width="50" height="50" relative="1" as="geometry">
            <mxPoint x="99" y="61" as="sourcePoint" />
            <mxPoint x="54" y="-13" as="targetPoint" />
          </mxGeometry>
        </mxCell>
        <mxCell id="3X7sFjILc2nTBFVgpaD6-37" value="SalaryID(FK)" style="ellipse;whiteSpace=wrap;html=1;" vertex="1" parent="1">
          <mxGeometry x="76" y="3" width="88" height="80" as="geometry" />
        </mxCell>
        <mxCell id="3X7sFjILc2nTBFVgpaD6-38" value="" style="endArrow=classic;html=1;rounded=0;exitX=0;exitY=1;exitDx=0;exitDy=0;" edge="1" parent="1" source="AUr0qY8jAKxIQQjFlksC-50">
          <mxGeometry width="50" height="50" relative="1" as="geometry">
            <mxPoint x="-483" y="251" as="sourcePoint" />
            <mxPoint x="-496" y="221" as="targetPoint" />
          </mxGeometry>
        </mxCell>
        <mxCell id="3X7sFjILc2nTBFVgpaD6-39" value="SubordinateID&lt;div&gt;(PK)&lt;/div&gt;" style="ellipse;whiteSpace=wrap;html=1;" vertex="1" parent="1">
          <mxGeometry x="-578" y="215" width="104" height="80" as="geometry" />
        </mxCell>
        <mxCell id="3X7sFjILc2nTBFVgpaD6-40" value="" style="endArrow=classic;html=1;rounded=0;exitX=0.5;exitY=1;exitDx=0;exitDy=0;entryX=0.612;entryY=0.062;entryDx=0;entryDy=0;entryPerimeter=0;" edge="1" parent="1" source="AUr0qY8jAKxIQQjFlksC-50" target="3X7sFjILc2nTBFVgpaD6-41">
          <mxGeometry width="50" height="50" relative="1" as="geometry">
            <mxPoint x="-436" y="263" as="sourcePoint" />
            <mxPoint x="-401" y="248" as="targetPoint" />
          </mxGeometry>
        </mxCell>
        <mxCell id="3X7sFjILc2nTBFVgpaD6-41" value="AssignmentDate" style="ellipse;whiteSpace=wrap;html=1;" vertex="1" parent="1">
          <mxGeometry x="-470" y="240" width="103" height="80" as="geometry" />
        </mxCell>
        <mxCell id="3X7sFjILc2nTBFVgpaD6-42" value="&lt;font style=&quot;font-size: 15px;&quot;&gt;1&lt;/font&gt;" style="text;html=1;align=center;verticalAlign=middle;whiteSpace=wrap;rounded=0;" vertex="1" parent="1">
          <mxGeometry x="-386.5" y="66" width="60" height="30" as="geometry" />
        </mxCell>
        <mxCell id="3X7sFjILc2nTBFVgpaD6-43" value="" style="endArrow=classic;html=1;rounded=0;entryX=0.5;entryY=0;entryDx=0;entryDy=0;exitX=0.25;exitY=1;exitDx=0;exitDy=0;" edge="1" parent="1" source="3X7sFjILc2nTBFVgpaD6-42" target="AUr0qY8jAKxIQQjFlksC-50">
          <mxGeometry width="50" height="50" relative="1" as="geometry">
            <mxPoint x="-371" y="120" as="sourcePoint" />
            <mxPoint x="-306" y="131.71067811865476" as="targetPoint" />
            <Array as="points">
              <mxPoint x="-362" y="88" />
            </Array>
          </mxGeometry>
        </mxCell>
        <mxCell id="3X7sFjILc2nTBFVgpaD6-45" value="" style="endArrow=classic;html=1;rounded=0;" edge="1" parent="1">
          <mxGeometry width="50" height="50" relative="1" as="geometry">
            <mxPoint x="78" y="-150" as="sourcePoint" />
            <mxPoint x="295" y="-396" as="targetPoint" />
          </mxGeometry>
        </mxCell>
        <mxCell id="3X7sFjILc2nTBFVgpaD6-46" value="1" style="text;html=1;align=center;verticalAlign=middle;whiteSpace=wrap;rounded=0;fontSize=15;" vertex="1" parent="1">
          <mxGeometry x="279" y="-429" width="60" height="30" as="geometry" />
        </mxCell>
        <mxCell id="3X7sFjILc2nTBFVgpaD6-47" value="" style="endArrow=none;html=1;rounded=0;" edge="1" parent="1">
          <mxGeometry width="50" height="50" relative="1" as="geometry">
            <mxPoint x="318" y="-422" as="sourcePoint" />
            <mxPoint x="368" y="-476" as="targetPoint" />
          </mxGeometry>
        </mxCell>
        <mxCell id="3X7sFjILc2nTBFVgpaD6-48" value="Contact Info" style="rhombus;whiteSpace=wrap;html=1;" vertex="1" parent="1">
          <mxGeometry x="353" y="-541" width="80" height="80" as="geometry" />
        </mxCell>
        <mxCell id="3X7sFjILc2nTBFVgpaD6-49" value="" style="endArrow=none;html=1;rounded=0;" edge="1" parent="1">
          <mxGeometry width="50" height="50" relative="1" as="geometry">
            <mxPoint x="417" y="-524" as="sourcePoint" />
            <mxPoint x="467" y="-574" as="targetPoint" />
          </mxGeometry>
        </mxCell>
        <mxCell id="3X7sFjILc2nTBFVgpaD6-50" value="N" style="text;html=1;align=center;verticalAlign=middle;whiteSpace=wrap;rounded=0;fontSize=15;" vertex="1" parent="1">
          <mxGeometry x="446" y="-597" width="60" height="30" as="geometry" />
        </mxCell>
        <mxCell id="3X7sFjILc2nTBFVgpaD6-51" value="" style="endArrow=classic;html=1;rounded=0;" edge="1" parent="1">
          <mxGeometry width="50" height="50" relative="1" as="geometry">
            <mxPoint x="481" y="-591" as="sourcePoint" />
            <mxPoint x="531" y="-641" as="targetPoint" />
          </mxGeometry>
        </mxCell>
        <mxCell id="3X7sFjILc2nTBFVgpaD6-52" value="Contact" style="rounded=0;whiteSpace=wrap;html=1;" vertex="1" parent="1">
          <mxGeometry x="531" y="-672" width="120" height="60" as="geometry" />
        </mxCell>
        <mxCell id="3X7sFjILc2nTBFVgpaD6-53" value="" style="endArrow=classic;html=1;rounded=0;exitX=0.5;exitY=0;exitDx=0;exitDy=0;" edge="1" parent="1" source="3X7sFjILc2nTBFVgpaD6-52">
          <mxGeometry width="50" height="50" relative="1" as="geometry">
            <mxPoint x="651" y="-640" as="sourcePoint" />
            <mxPoint x="591" y="-716" as="targetPoint" />
          </mxGeometry>
        </mxCell>
        <mxCell id="3X7sFjILc2nTBFVgpaD6-54" value="ContactID(PK)" style="ellipse;whiteSpace=wrap;html=1;" vertex="1" parent="1">
          <mxGeometry x="548" y="-796" width="94" height="80" as="geometry" />
        </mxCell>
        <mxCell id="3X7sFjILc2nTBFVgpaD6-55" value="" style="endArrow=classic;html=1;rounded=0;exitX=0;exitY=0;exitDx=0;exitDy=0;" edge="1" parent="1" source="3X7sFjILc2nTBFVgpaD6-52">
          <mxGeometry width="50" height="50" relative="1" as="geometry">
            <mxPoint x="458" y="-698" as="sourcePoint" />
            <mxPoint x="499" y="-716" as="targetPoint" />
          </mxGeometry>
        </mxCell>
        <mxCell id="3X7sFjILc2nTBFVgpaD6-56" value="Email" style="ellipse;whiteSpace=wrap;html=1;" vertex="1" parent="1">
          <mxGeometry x="445" y="-796" width="86" height="80" as="geometry" />
        </mxCell>
        <mxCell id="3X7sFjILc2nTBFVgpaD6-57" value="" style="endArrow=classic;html=1;rounded=0;exitX=0.5;exitY=1;exitDx=0;exitDy=0;" edge="1" parent="1" source="3X7sFjILc2nTBFVgpaD6-52">
          <mxGeometry width="50" height="50" relative="1" as="geometry">
            <mxPoint x="614" y="-538" as="sourcePoint" />
            <mxPoint x="591" y="-561" as="targetPoint" />
          </mxGeometry>
        </mxCell>
        <mxCell id="3X7sFjILc2nTBFVgpaD6-58" value="Country" style="ellipse;whiteSpace=wrap;html=1;" vertex="1" parent="1">
          <mxGeometry x="531" y="-560" width="120" height="80" as="geometry" />
        </mxCell>
        <mxCell id="3X7sFjILc2nTBFVgpaD6-59" value="" style="endArrow=classic;html=1;rounded=0;exitX=0.25;exitY=0;exitDx=0;exitDy=0;" edge="1" parent="1" source="AUr0qY8jAKxIQQjFlksC-1" target="3X7sFjILc2nTBFVgpaD6-60">
          <mxGeometry width="50" height="50" relative="1" as="geometry">
            <mxPoint x="-242" y="-297" as="sourcePoint" />
            <mxPoint x="-207" y="-429" as="targetPoint" />
          </mxGeometry>
        </mxCell>
        <mxCell id="3X7sFjILc2nTBFVgpaD6-60" value="&lt;font style=&quot;font-size: 13px;&quot;&gt;&lt;font style=&quot;&quot;&gt;H&lt;/font&gt;ierarchyID&lt;/font&gt;&lt;div&gt;&lt;font style=&quot;font-size: 13px;&quot;&gt;(FK)&lt;/font&gt;&lt;/div&gt;" style="ellipse;whiteSpace=wrap;html=1;" vertex="1" parent="1">
          <mxGeometry x="-266" y="-512" width="76" height="80" as="geometry" />
        </mxCell>
        <mxCell id="3X7sFjILc2nTBFVgpaD6-61" value="" style="endArrow=classic;html=1;rounded=0;entryX=0.737;entryY=0.943;entryDx=0;entryDy=0;entryPerimeter=0;" edge="1" parent="1" target="3X7sFjILc2nTBFVgpaD6-62">
          <mxGeometry width="50" height="50" relative="1" as="geometry">
            <mxPoint x="-113" y="-153" as="sourcePoint" />
            <mxPoint x="-275" y="-419" as="targetPoint" />
          </mxGeometry>
        </mxCell>
        <mxCell id="3X7sFjILc2nTBFVgpaD6-62" value="&lt;font style=&quot;font-size: 13px;&quot;&gt;ContactID(FK)&lt;/font&gt;" style="ellipse;whiteSpace=wrap;html=1;" vertex="1" parent="1">
          <mxGeometry x="-360" y="-496" width="89" height="80" as="geometry" />
        </mxCell>
        <mxCell id="3X7sFjILc2nTBFVgpaD6-63" value="" style="endArrow=classic;html=1;rounded=0;exitX=0.25;exitY=0;exitDx=0;exitDy=0;" edge="1" parent="1" source="AUr0qY8jAKxIQQjFlksC-1">
          <mxGeometry width="50" height="50" relative="1" as="geometry">
            <mxPoint x="-291" y="-250" as="sourcePoint" />
            <mxPoint x="-357" y="-391" as="targetPoint" />
          </mxGeometry>
        </mxCell>
        <mxCell id="3X7sFjILc2nTBFVgpaD6-64" value="&lt;font style=&quot;font-size: 14px;&quot;&gt;DepartmentID&lt;/font&gt;&lt;div&gt;&lt;font style=&quot;font-size: 14px;&quot;&gt;(FK)&lt;/font&gt;&lt;/div&gt;" style="ellipse;whiteSpace=wrap;html=1;" vertex="1" parent="1">
          <mxGeometry x="-452" y="-458" width="102" height="80" as="geometry" />
        </mxCell>
        <mxCell id="3X7sFjILc2nTBFVgpaD6-67" value="" style="endArrow=classic;html=1;rounded=0;exitX=0.39;exitY=1.005;exitDx=0;exitDy=0;exitPerimeter=0;entryX=0.685;entryY=0.02;entryDx=0;entryDy=0;entryPerimeter=0;" edge="1" parent="1" source="AUr0qY8jAKxIQQjFlksC-1" target="3X7sFjILc2nTBFVgpaD6-68">
          <mxGeometry width="50" height="50" relative="1" as="geometry">
            <mxPoint x="-146" y="92" as="sourcePoint" />
            <mxPoint x="-107" y="19" as="targetPoint" />
          </mxGeometry>
        </mxCell>
        <mxCell id="3X7sFjILc2nTBFVgpaD6-68" value="&lt;font style=&quot;font-size: 13px;&quot;&gt;SalaryID&lt;/font&gt;&lt;div&gt;&lt;font style=&quot;font-size: 13px;&quot;&gt;(FK)&lt;/font&gt;&lt;/div&gt;" style="ellipse;whiteSpace=wrap;html=1;" vertex="1" parent="1">
          <mxGeometry x="-155" y="16" width="66" height="80" as="geometry" />
        </mxCell>
        <mxCell id="3X7sFjILc2nTBFVgpaD6-69" value="" style="endArrow=classic;html=1;rounded=0;exitX=0.142;exitY=0.985;exitDx=0;exitDy=0;exitPerimeter=0;entryX=0.748;entryY=0.03;entryDx=0;entryDy=0;entryPerimeter=0;" edge="1" parent="1" source="AUr0qY8jAKxIQQjFlksC-1" target="3X7sFjILc2nTBFVgpaD6-70">
          <mxGeometry width="50" height="50" relative="1" as="geometry">
            <mxPoint x="-230" y="150" as="sourcePoint" />
            <mxPoint x="-175" y="23" as="targetPoint" />
          </mxGeometry>
        </mxCell>
        <mxCell id="3X7sFjILc2nTBFVgpaD6-70" value="&lt;font style=&quot;font-size: 13px;&quot;&gt;EmploymentStatusID&lt;/font&gt;&lt;div&gt;&lt;font style=&quot;font-size: 13px;&quot;&gt;(FK)&lt;/font&gt;&lt;/div&gt;" style="ellipse;whiteSpace=wrap;html=1;" vertex="1" parent="1">
          <mxGeometry x="-290" y="30" width="129" height="80" as="geometry" />
        </mxCell>
        <mxCell id="3X7sFjILc2nTBFVgpaD6-71" value="" style="endArrow=classic;html=1;rounded=0;exitX=0;exitY=0.5;exitDx=0;exitDy=0;entryX=0.741;entryY=1.004;entryDx=0;entryDy=0;entryPerimeter=0;" edge="1" parent="1" source="AUr0qY8jAKxIQQjFlksC-65" target="3X7sFjILc2nTBFVgpaD6-72">
          <mxGeometry width="50" height="50" relative="1" as="geometry">
            <mxPoint x="-195" y="245" as="sourcePoint" />
            <mxPoint x="-197" y="224" as="targetPoint" />
          </mxGeometry>
        </mxCell>
        <mxCell id="3X7sFjILc2nTBFVgpaD6-72" value="StatusID(PK)" style="ellipse;whiteSpace=wrap;html=1;" vertex="1" parent="1">
          <mxGeometry x="-267.5" y="163" width="84" height="80" as="geometry" />
        </mxCell>
        <mxCell id="3X7sFjILc2nTBFVgpaD6-74" value="" style="endArrow=classic;html=1;rounded=0;exitX=0.344;exitY=1.018;exitDx=0;exitDy=0;exitPerimeter=0;entryX=0.652;entryY=0.054;entryDx=0;entryDy=0;entryPerimeter=0;" edge="1" parent="1" source="AUr0qY8jAKxIQQjFlksC-65" target="3X7sFjILc2nTBFVgpaD6-75">
          <mxGeometry width="50" height="50" relative="1" as="geometry">
            <mxPoint x="-51" y="396" as="sourcePoint" />
            <mxPoint x="-78" y="382" as="targetPoint" />
          </mxGeometry>
        </mxCell>
        <mxCell id="3X7sFjILc2nTBFVgpaD6-75" value="StartDate" style="ellipse;whiteSpace=wrap;html=1;" vertex="1" parent="1">
          <mxGeometry x="-134" y="385" width="73" height="80" as="geometry" />
        </mxCell>
        <mxCell id="3X7sFjILc2nTBFVgpaD6-76" value="" style="endArrow=classic;html=1;rounded=0;exitX=0.6;exitY=0.977;exitDx=0;exitDy=0;exitPerimeter=0;entryX=0.357;entryY=0.087;entryDx=0;entryDy=0;entryPerimeter=0;" edge="1" parent="1" source="AUr0qY8jAKxIQQjFlksC-65" target="3X7sFjILc2nTBFVgpaD6-77">
          <mxGeometry width="50" height="50" relative="1" as="geometry">
            <mxPoint x="-9" y="427" as="sourcePoint" />
            <mxPoint x="-8" y="392" as="targetPoint" />
          </mxGeometry>
        </mxCell>
        <mxCell id="3X7sFjILc2nTBFVgpaD6-77" value="EndDate" style="ellipse;whiteSpace=wrap;html=1;" vertex="1" parent="1">
          <mxGeometry x="-38" y="391" width="85" height="80" as="geometry" />
        </mxCell>
        <mxCell id="3X7sFjILc2nTBFVgpaD6-78" value="" style="endArrow=classic;html=1;rounded=0;entryX=0;entryY=1;entryDx=0;entryDy=0;" edge="1" parent="1" target="3X7sFjILc2nTBFVgpaD6-79">
          <mxGeometry width="50" height="50" relative="1" as="geometry">
            <mxPoint x="-56" y="-152" as="sourcePoint" />
            <mxPoint x="108" y="-377" as="targetPoint" />
          </mxGeometry>
        </mxCell>
        <mxCell id="3X7sFjILc2nTBFVgpaD6-79" value="StatusID&lt;div&gt;(FK)&lt;/div&gt;" style="ellipse;whiteSpace=wrap;html=1;" vertex="1" parent="1">
          <mxGeometry x="109" y="-448" width="64" height="80" as="geometry" />
        </mxCell>
        <mxCell id="3X7sFjILc2nTBFVgpaD6-80" value="" style="endArrow=classic;html=1;rounded=0;exitX=0.5;exitY=0;exitDx=0;exitDy=0;entryX=0.279;entryY=1.036;entryDx=0;entryDy=0;entryPerimeter=0;" edge="1" parent="1" source="AUr0qY8jAKxIQQjFlksC-1" target="3X7sFjILc2nTBFVgpaD6-81">
          <mxGeometry width="50" height="50" relative="1" as="geometry">
            <mxPoint x="19" y="-193" as="sourcePoint" />
            <mxPoint x="162" y="-358" as="targetPoint" />
          </mxGeometry>
        </mxCell>
        <mxCell id="3X7sFjILc2nTBFVgpaD6-81" value="JobID&lt;div&gt;(FK)&lt;/div&gt;" style="ellipse;whiteSpace=wrap;html=1;" vertex="1" parent="1">
          <mxGeometry x="193" y="-448" width="53" height="80" as="geometry" />
        </mxCell>
      </root>
    </mxGraphModel>
  </diagram>
</mxfile>
